<svg width="125" height="143" viewBox="0 0 125 143" fill="none" xmlns="http://www.w3.org/2000/svg">
<path fill-rule="evenodd" clip-rule="evenodd" d="M18.8043 73.1559C18.8043 73.1559 15.4748 59.3482 14.0335 46.2757C12.5861 33.1475 12.9533 20.6809 12.9533 20.6809C12.9533 20.6809 23.4456 16.5244 35.1537 13.763C45.1464 11.4061 54.9407 10.8188 54.9407 10.8188L57.0014 7.28616C57.0014 7.28616 44.1175 7.78779 31.8689 10.25C16.2287 13.3942 7.50735 17.185 7.50735 17.185C7.50735 17.185 7.40514 32.6116 9.56783 48.7637C11.8749 65.9942 15.9345 78.087 15.9345 78.087L18.8043 73.1559ZM17.5532 82.8708C17.5532 82.8708 17.6513 83.1931 17.751 83.4831C17.8537 83.7818 17.9579 84.0484 17.9579 84.0484H22.0426C22.0426 84.0484 21.5686 82.6339 21.1019 81.1681C20.6489 79.7457 20.2027 78.271 20.2027 78.271L17.5532 82.8708ZM23.2938 87.6546H19.4667C19.4667 87.6546 19.7511 88.4121 20.0698 89.1373C20.4761 90.0619 20.9386 91.0033 20.9386 91.0033H24.5449C24.5449 91.0033 24.1751 90.0875 23.8378 89.1841C23.5544 88.4259 23.2938 87.6546 23.2938 87.6546ZM116.688 17.185C116.688 17.185 107.967 13.3942 92.327 10.25C80.0783 7.78754 67.195 7.28616 67.195 7.28616L69.2557 10.8188C69.2557 10.8188 79.0498 11.4061 89.0422 13.763C100.75 16.5244 111.242 20.6809 111.242 20.6809C111.242 20.6809 111.609 33.1475 110.162 46.2757C108.721 59.3482 105.391 73.1559 105.391 73.1559L108.261 78.087C108.261 78.087 112.321 65.9945 114.628 48.7637C116.79 32.6116 116.688 17.185 116.688 17.185ZM106.642 82.8708L103.992 78.271C103.992 78.271 103.546 79.7457 103.093 81.1681C102.626 82.6339 102.152 84.0484 102.152 84.0484H106.237C106.237 84.0484 106.341 83.7818 106.444 83.4831C106.544 83.1931 106.642 82.8708 106.642 82.8708ZM100.358 89.1841C100.02 90.0875 99.6504 91.0033 99.6504 91.0033H103.257C103.257 91.0033 103.719 90.0619 104.125 89.1373C104.444 88.4121 104.728 87.6546 104.728 87.6546H100.901C100.902 87.6546 100.641 88.4259 100.358 89.1841ZM70.7713 134.919C66.7794 138.733 62.1165 141.822 62.1165 141.822C62.1165 141.822 56.6687 138.105 52.005 133.405C47.2132 128.576 43.2019 122.761 43.2019 122.761H40.3316C40.3316 122.761 45.3153 129.36 50.9664 134.61C56.1911 139.464 62.1165 143 62.1165 143C62.1165 143 66.6616 140.453 72.9264 134.908C78.0128 130.407 83.9749 122.761 83.9749 122.761L81.1046 122.797C81.1046 122.797 76.1846 129.748 70.7713 134.919ZM59.5037 10.4876H64.8028L62.8892 7.21256H61.3805L59.5037 10.4876ZM57.811 85.692C57.811 85.0215 57.9214 84.7843 57.9214 84.7843H15.566L36.9093 47.7648C36.9093 47.7648 36.356 47.6531 35.8866 47.3996C35.4366 47.1566 34.7014 46.7712 34.7014 46.7712L11.7758 86.9187H57.9214C57.9214 86.9187 57.811 86.1377 57.811 85.692ZM88.2727 47.3996C87.8033 47.6531 87.25 47.7648 87.25 47.7648L108.63 84.7843H66.3115C66.3115 84.7843 66.3851 85.0215 66.3851 85.692C66.3851 86.1377 66.3115 86.9187 66.3115 86.9187H112.42L89.4579 46.7712C89.4579 46.7712 88.7227 47.1563 88.2727 47.3996ZM83.9218 40.0478C84.4132 39.7759 85.2629 39.6323 85.2629 39.6323L62.1165 0L38.9332 39.6323C38.9332 39.6323 39.8251 39.7434 40.2519 40.0102C40.7072 40.2949 41.0676 40.7362 41.0676 40.7362L62.1165 4.41585L83.1654 40.589C83.1654 40.589 83.5735 40.2405 83.9218 40.0478Z" fill="#6C5338"/>
<path fill-rule="evenodd" clip-rule="evenodd" d="M0.920898 93.6897L1.06809 120.074H123.24V93.6897H0.920898Z" fill="#6C5338"/>
<path fill-rule="evenodd" clip-rule="evenodd" d="M56.6974 54.5068C56.6974 54.5068 57.7096 53.9408 58.5187 53.5631C59.0574 53.3117 59.5061 53.1959 59.5061 53.1959L60.0678 52.5404C60.0678 52.5404 60.2661 51.8348 60.4703 51.1083C60.687 50.3376 61.0039 49.5434 61.0039 49.5434L59.7867 48.7941C59.7867 48.7941 58.2289 48.6799 56.0678 50.6294C54.649 51.9095 54.2631 53.3829 54.2631 53.3829L56.1355 54.5068H56.6974ZM0 91.7398V122.025H124.233V91.7398H0ZM122.061 119.854H2.17113V93.9109H122.061V119.854ZM62.5955 55.9118L66.9957 55.5372C66.9957 55.5372 67.3126 54.9602 67.56 54.3208C67.8676 53.5258 68.1191 52.6339 68.1191 52.6339L65.4042 49.918C65.4042 49.918 65.1514 49.7189 64.8857 49.6083C64.5913 49.4856 64.2808 49.4498 64.2808 49.4498L61.6594 49.7307L60.4422 53.2894L62.5955 55.9118ZM56.1355 55.2561C56.1355 55.2561 55.5398 54.8288 54.9495 54.4982C54.3697 54.1734 53.7949 53.9452 53.7949 53.9452C53.7949 53.9452 52.8474 56.0731 53.1106 58.0605C53.2381 59.0226 53.3963 60.0435 53.798 60.7235C54.1885 61.3844 54.731 61.6246 54.731 61.6246L56.4161 59.1897L56.1355 55.2561ZM65.0234 77.9402H59.5772L60.2764 79.1914H64.3242L65.0234 77.9402ZM61.5656 66.4943V66.307C61.5656 66.307 60.672 66.1353 60.0735 65.9676C59.5023 65.8076 59.1315 65.6512 59.1315 65.6512C59.1315 65.6512 59.2687 65.987 59.9176 66.2117C60.4795 66.4064 61.5656 66.4943 61.5656 66.4943ZM69.4002 59.6347C68.8055 60.4015 68.3192 61.4746 67.9515 62.2078C67.7082 62.693 67.4641 63.0293 67.4641 63.0293C67.4641 63.0293 67.3995 63.4617 67.425 63.8468C67.4457 64.1558 67.4641 64.3405 67.4641 64.3405C67.4641 64.3405 67.6118 64.6214 67.7217 64.6214C67.7869 64.6214 67.8388 64.4341 67.8388 64.4341C67.8388 64.4341 68.3631 63.968 68.9951 63.2959C69.3674 62.8998 69.8384 62.2445 70.0965 61.7585C70.9713 60.1112 71.0219 58.4405 71.0219 58.4405C71.0219 58.4405 70.785 58.5928 70.4497 58.7903C70.1456 58.9692 69.7615 59.1683 69.4002 59.6347ZM61.0284 65.469C61.2462 65.4207 61.5656 65.2769 61.5656 65.2769C61.5656 65.2769 61.905 64.7108 62.2093 64.3786C62.3744 64.1985 62.4081 64.1532 62.4081 64.1532C62.4081 64.1532 62.5017 64.0101 62.5017 63.8489C62.5017 63.6414 62.4081 63.404 62.4081 63.404C62.4081 63.404 61.9165 62.428 61.3844 61.5413C60.9416 60.8028 60.442 60.1263 60.442 60.1263L56.7907 59.5644C56.7907 59.5644 56.484 60.1782 56.1109 60.7506C55.7851 61.2505 55.3865 61.7184 55.3865 61.7184C55.3865 61.7184 55.2717 61.887 55.2498 62.0641C55.2252 62.2606 55.2929 62.4676 55.2929 62.4676L56.5101 64.3405C56.5101 64.3405 56.6272 64.5074 56.769 64.5961C56.9854 64.7315 57.2591 64.809 57.2591 64.809L60.6295 65.4644C60.6295 65.4642 60.8255 65.5143 61.0284 65.469ZM43.2753 48.8692L44.0113 50.1204L46.7344 45.3733H45.2993L43.2753 48.8692ZM91.8865 78.6394L85.7779 76.1739V77.9402H68.5929L67.8937 79.1914H85.7779V80.9577L91.8865 78.6394ZM82.1348 53.2851L91.0769 68.8141L89.5314 69.6973L94.6096 73.8188L93.6896 67.3054L92.1809 68.1886L82.834 51.9971L82.1348 53.2851ZM81.2149 49.1636L79.0069 45.3733H77.5718L80.4789 50.4148L81.2149 49.1636ZM64.729 22.0061L65.7226 28.4091L67.2681 27.5259L75.695 42.1719H77.167L68.3353 26.9004L69.8808 26.0172L64.729 22.0061ZM97.2775 82.0249C99.1573 82.0249 100.681 80.5008 100.681 78.621C100.681 76.7412 99.1573 75.2171 97.2775 75.2171C95.3977 75.2171 93.8736 76.7412 93.8736 78.621C93.8736 80.5008 95.3977 82.0249 97.2775 82.0249ZM68.8303 59.0249C68.8505 58.8642 68.7746 58.7213 68.7746 58.7213L67.183 56.1927L62.6892 56.5673L61.285 59.096C61.285 59.096 61.1626 59.411 61.137 59.6927C61.1163 59.9203 61.1912 60.1261 61.1912 60.1261L63.2509 63.404L66.2467 63.2167C66.2467 63.2167 66.4762 63.1382 66.6811 62.9844C66.8465 62.8604 66.9957 62.6547 66.9957 62.6547L68.6808 59.4706C68.6808 59.4706 68.8042 59.2324 68.8303 59.0249ZM62.0979 20.3134C63.978 20.3134 65.5018 18.7893 65.5018 16.9095C65.5018 15.0294 63.9777 13.5056 62.0979 13.5056C60.2181 13.5056 58.694 15.0297 58.694 16.9095C58.694 18.7893 60.2178 20.3134 62.0979 20.3134ZM48.6112 42.1719L57.0381 27.5259L58.5836 28.4091L59.5772 22.0061L54.4254 26.0172L55.9709 26.9004L47.1392 42.1719H48.6112ZM68.5827 52.3444C69.3122 53.0244 69.898 53.0083 69.898 53.0083V52.6337C69.898 52.6337 69.1495 51.5611 68.3156 50.7557C67.1283 49.609 65.7785 49.1687 65.7785 49.1687C65.7785 49.1687 67.3773 51.2208 68.5827 52.3444ZM66.6794 106.717V106.349H62.9995C61.9834 106.349 61.1595 107.173 61.1595 108.189V108.557H64.8394C65.8555 108.557 66.6794 107.733 66.6794 106.717ZM35.7316 46.1829C36.7384 47.2388 38.1603 47.2133 38.1603 47.2133C38.1603 47.2133 38.5045 47.1867 38.8145 47.1228C39.1299 47.0579 39.4115 46.9554 39.4115 46.9554L59.7612 83.1289C59.7612 83.1289 59.2304 83.6527 58.9516 84.3064C58.6981 84.9011 58.694 85.6312 58.694 85.6312C58.694 85.6312 58.6473 87.051 59.7382 88.0704C60.9109 89.1659 62.1163 89.0167 62.1163 89.0167C62.1163 89.0167 63.4526 89.1266 64.5818 87.9495C65.57 86.9194 65.5386 85.6312 65.5386 85.6312C65.5386 85.6312 65.5616 84.8295 65.3574 84.3054C65.1389 83.7452 64.7658 83.3129 64.7658 83.3129L85.1523 47.1029C85.1523 47.1029 85.3284 47.1663 85.5451 47.1933C85.77 47.2215 86.0355 47.2133 86.0355 47.2133C86.0355 47.2133 87.6099 47.0709 88.4274 46.2197C89.5664 45.0337 89.4578 43.7174 89.4578 43.7174C89.4578 43.7174 89.4187 42.2605 88.501 41.3991C87.3217 40.2918 85.9987 40.3687 85.9987 40.3687C85.9987 40.3687 84.8641 40.3442 84.0116 41.0311C82.868 41.9526 82.7604 42.871 82.7604 42.871H41.4354C41.4354 42.871 41.2427 41.9099 40.2578 41.1047C39.2725 40.2989 38.1603 40.3687 38.1603 40.3687C38.1603 40.3687 36.7801 40.2744 35.7684 41.3623C34.6769 42.536 34.7748 43.7542 34.7748 43.7542C34.7748 43.7542 34.6356 45.0337 35.7316 46.1829ZM41.2358 45.3138C41.3881 44.9997 41.4354 44.6742 41.4354 44.6742H82.7972C82.7972 44.6742 82.8573 45.0802 83.0666 45.4533C83.2804 45.8343 83.6436 46.1829 83.6436 46.1829L63.3675 82.3193C63.3675 82.3193 62.8168 82.1721 62.2635 82.1721C61.7716 82.1721 61.2699 82.3193 61.2699 82.3193L40.8466 45.8885C40.8466 45.8885 41.094 45.6061 41.2358 45.3138ZM48.7009 112.421V111.196L55.366 105.606V114.26H55.6982C56.7146 114.26 57.5382 113.436 57.5382 112.42V99.6145H57.2057C56.1897 99.6145 55.3658 100.438 55.3658 101.454V102.772L48.7006 108.361V99.6142H48.3684C47.3523 99.6142 46.5285 100.438 46.5285 101.454V114.26H46.8609C47.877 114.261 48.7009 113.437 48.7009 112.421ZM72.1256 114.261H72.4568C73.4731 114.261 74.2967 113.437 74.2967 112.421V101.786H78.7493V99.6147H69.5497C68.5336 99.6147 67.7097 100.439 67.7097 101.455V101.786H72.1256V114.261ZM41.141 109.072C42.2169 110.344 42.0978 111.685 42.0978 111.685V114.261H42.6498C42.6498 114.261 43.2996 114.263 43.8329 113.61C44.2421 113.109 44.2689 112.605 44.2689 112.605V111.39C44.2689 111.39 44.3461 110.222 43.5697 108.63C42.893 107.243 41.2514 106.349 41.2514 106.349C41.2514 106.349 41.9388 105.835 42.5762 104.546C43.1243 103.437 43.1281 102.448 43.1281 102.448V99.6147H42.613C42.613 99.6147 41.9751 99.6551 41.4671 100.174C40.966 100.686 40.957 101.197 40.957 101.197V102.375C40.957 102.375 40.9166 103.567 39.9635 104.546C38.9957 105.54 37.8659 105.65 37.8659 105.65H37.823C37.823 105.65 37.2319 105.681 36.7252 106.202C36.2596 106.68 36.21 107.281 36.21 107.281V107.821H38.5651C38.5651 107.821 40.0991 107.841 41.141 109.072ZM11.0764 114.261H11.4076C12.4237 114.261 13.2476 113.437 13.2476 112.421V101.749H17.7002V99.5779H8.50051C7.4842 99.5779 6.66057 100.402 6.66057 101.418V101.749H11.0764V114.261ZM22.1161 112.421V111.196L28.7766 105.607V114.261H29.1078C30.1239 114.261 30.9478 113.437 30.9478 112.421V99.615H30.6166C29.6005 99.615 28.7766 100.439 28.7766 101.455V102.773C27.8914 103.516 24.5972 106.28 22.1161 108.362V99.615H21.7849C20.7686 99.615 19.9449 100.439 19.9449 101.455V114.261H20.2761C21.2922 114.261 22.1161 113.437 22.1161 112.421ZM35.4004 112.421V99.6147H35.0692C34.0529 99.6147 33.2293 100.439 33.2293 101.455V114.261H33.5605C34.5765 114.261 35.4004 113.437 35.4004 112.421ZM78.6389 114.261H79.1541C79.1541 114.261 79.7881 114.242 80.3176 113.682C80.829 113.14 80.8101 112.568 80.8101 112.568V110.875C80.8101 110.875 80.762 107.906 82.3372 105.65C84.2226 102.949 87.4706 102.191 87.4706 102.191V108.336H83.4964C83.4964 108.336 82.8767 108.33 82.328 108.842C81.7886 109.345 81.7668 110.066 81.7668 110.066V110.544H87.4706V114.261H87.9858C87.9858 114.261 88.6474 114.191 89.133 113.703C89.5896 113.244 89.6418 112.531 89.6418 112.531V99.6147H89.0162C89.0162 99.6147 86.5425 99.7407 84.3351 100.936C82.0886 102.152 80.8101 104.031 80.8101 104.031C80.8101 104.031 79.7772 105.421 79.2678 106.853C78.6952 108.465 78.6389 110.139 78.6389 110.139V114.261ZM26.6239 82.0249C28.5037 82.0249 30.0278 80.5008 30.0278 78.621C30.0278 76.7412 28.5037 75.2171 26.6239 75.2171C24.7441 75.2171 23.22 76.7412 23.22 78.621C23.22 80.5008 24.7441 82.0249 26.6239 82.0249ZM55.2564 134.61H68.9609L71.2056 132.439H52.9749L55.2564 134.61ZM33.2293 68.8141L42.1714 53.2851L41.4722 51.9971L32.1253 68.1886L30.6166 67.3054L29.6966 73.8188L34.7748 69.6973L33.2293 68.8141ZM32.0149 78.6394L38.1235 80.9577V79.1914H56.7069L56.0077 77.9402H38.1235V76.1739L32.0149 78.6394ZM94.0576 112.421V99.6147H93.7264C92.7101 99.6147 91.8865 100.439 91.8865 101.455V114.261H92.2177C93.2337 114.261 94.0576 113.437 94.0576 112.421ZM49.6415 128.355H74.5543L76.5046 126.183H47.6544L49.6415 128.355ZM99.7982 109.072C100.874 110.344 100.755 111.685 100.755 111.685V114.261H101.307C101.307 114.261 101.957 114.263 102.49 113.61C102.899 113.109 102.926 112.605 102.926 112.605V111.39C102.926 111.39 103.003 110.222 102.227 108.63C101.55 107.243 99.9086 106.349 99.9086 106.349C99.9086 106.349 100.596 105.835 101.233 104.546C101.782 103.437 101.785 102.448 101.785 102.448V99.6147H101.27C101.27 99.6147 100.632 99.6551 100.124 100.174C99.6232 100.686 99.6142 101.197 99.6142 101.197V102.375C99.6142 102.375 99.5739 103.567 98.6207 104.546C97.6529 105.54 96.5231 105.65 96.5231 105.65H96.4802C96.4802 105.65 95.8891 105.681 95.3824 106.202C94.9168 106.68 94.8672 107.281 94.8672 107.281V107.821H97.2223C97.2223 107.821 98.7564 107.841 99.7982 109.072ZM106.629 113.682C107.14 113.14 107.121 112.568 107.121 112.568V110.875C107.121 110.875 107.073 107.906 108.648 105.65C110.534 102.949 113.782 102.191 113.782 102.191V108.336H109.807C109.807 108.336 109.188 108.33 108.639 108.842C108.1 109.345 108.078 110.066 108.078 110.066V110.544H113.782V114.261H114.297C114.297 114.261 114.959 114.191 115.444 113.703C115.901 113.244 115.953 112.531 115.953 112.531V99.6147H115.327C115.327 99.6147 112.854 99.7407 110.646 100.936C108.4 102.152 107.121 104.031 107.121 104.031C107.121 104.031 106.088 105.421 105.579 106.853C105.006 108.465 104.95 110.139 104.95 110.139V114.261H105.465C105.465 114.261 106.099 114.242 106.629 113.682Z" fill="#F3EB93"/>
</svg>
